<svg width="556" height="742" viewBox="0 0 556 742" class="keymap" xmlns="http://www.w3.org/2000/svg" xmlns:xlink="http://www.w3.org/1999/xlink">
<defs>/* start glyphs */
<svg id="mdi:arrow-down-bold">
<svg xmlns="http://www.w3.org/2000/svg" id="mdi-arrow-down-bold" viewBox="0 0 24 24"><path d="M9,4H15V12H19.84L12,19.84L4.16,12H9V4Z" /></svg>
</svg>
<svg id="mdi:arrow-left-bold">
<svg xmlns="http://www.w3.org/2000/svg" id="mdi-arrow-left-bold" viewBox="0 0 24 24"><path d="M20,9V15H12V19.84L4.16,12L12,4.16V9H20Z" /></svg>
</svg>
<svg id="mdi:arrow-right-bold">
<svg xmlns="http://www.w3.org/2000/svg" id="mdi-arrow-right-bold" viewBox="0 0 24 24"><path d="M4,15V9H12V4.16L19.84,12L12,19.84V15H4Z" /></svg>
</svg>
<svg id="mdi:arrow-up-bold">
<svg xmlns="http://www.w3.org/2000/svg" id="mdi-arrow-up-bold" viewBox="0 0 24 24"><path d="M15,20H9V12H4.16L12,4.16L19.84,12H15V20Z" /></svg>
</svg>
<svg id="mdi:keyboard-return">
<svg xmlns="http://www.w3.org/2000/svg" id="mdi-keyboard-return" viewBox="0 0 24 24"><path d="M19,7V11H5.83L9.41,7.41L8,6L2,12L8,18L9.41,16.58L5.83,13H21V7H19Z" /></svg>
</svg>
<svg id="mdi:transfer">
<svg xmlns="http://www.w3.org/2000/svg" id="mdi-transfer" viewBox="0 0 24 24"><path d="M8 4A2 2 0 0 0 6 6V10H8V6H16V9H13.5L17 12.5L20.5 9H18V6A2 2 0 0 0 16 4H8M3 12V14H11V12H3M3 15V17H11V15H3M13 15V17H21V15H13M3 18V20H11V18H3M13 18V20H21V18H13Z" /></svg>
</svg>
</defs>/* end glyphs */
<style>/* inherit to force styles through use tags */
svg path {
    fill: inherit;
}

/* font and background color specifications */
svg.keymap {
    font-family: SFMono-Regular,Consolas,Liberation Mono,Menlo,monospace;
    font-size: 14px;
    font-kerning: normal;
    text-rendering: optimizeLegibility;
    fill: #24292e;
}

/* default key styling */
rect.key {
    fill: #f6f8fa;
}

rect.key, rect.combo {
    stroke: #c9cccf;
    stroke-width: 1;
}

/* default key side styling, only used is draw_key_sides is set */
rect.side {
    filter: brightness(90%);
}

/* color accent for combo boxes */
rect.combo, rect.combo-separate {
    fill: #cdf;
}

/* color accent for held keys */
rect.held, rect.combo.held {
    fill: #fdd;
}

/* color accent for ghost (optional) keys */
rect.ghost, rect.combo.ghost {
    stroke-dasharray: 4, 4;
    stroke-width: 2;
}

text {
    text-anchor: middle;
    dominant-baseline: middle;
}

/* styling for layer labels */
text.label {
    font-weight: bold;
    text-anchor: start;
    stroke: white;
    stroke-width: 4;
    paint-order: stroke;
}

/* styling for optional footer */
text.footer {
    text-anchor: end;
    dominant-baseline: auto;
    stroke: white;
    stroke-width: 4;
    paint-order: stroke;
}

/* styling for combo tap, and key non-tap label text */
text.combo, text.hold, text.shifted, text.left, text.right {
    font-size: 11px;
}

text.hold {
    text-anchor: middle;
    dominant-baseline: auto;
}

text.shifted {
    text-anchor: middle;
    dominant-baseline: hanging;
}

text.left {
    text-anchor: start;
}

text.right {
    text-anchor: end;
}

text.layer-activator {
    text-decoration: underline;
}

/* styling for hold/shifted label text in combo box */
text.combo.hold, text.combo.shifted, text.combo.left, text.combo.right {
    font-size: 8px;
}

/* lighter symbol for transparent keys */
text.trans {
    fill: #7b7e81;
}

/* styling for combo dendrons */
path.combo {
    stroke-width: 1;
    stroke: gray;
    fill: none;
}

/* Start Tabler Icons Cleanup */
/* cannot use height/width with glyphs */
.icon-tabler > path {
    fill: inherit;
    stroke: inherit;
    stroke-width: 2;
}
/* hide tabler's default box */
.icon-tabler > path[stroke="none"][fill="none"] {
    visibility: hidden;
}
/* End Tabler Icons Cleanup */

/* For default sytles, see https://github.com/caksoylar/keymap-drawer/blob/main/keymap_drawer/config.py#L85 */

svg.keymap {
  font-family: Ubuntu Mono, Inconsolata, Consolas, Liberation Mono, Menlo, monospace;
  font-size: 12px;
  font-weight: bold;
  text-rendering: optimizeLegibility;
}

/* Color accent for held keys */
rect.held, rect.combo.held {
    fill: #ffc;
}

/* Technique borrowed and extended from https://github.com/englmaxi/zmk-config/blob/master/keymap-drawer/config.yaml */
.sym_sub_text.tap {
  translate: -5px 2px;
  font-size: 20px;
}
.sym_sub_text.shifted {
  translate: 10px 13px;
  font-size: 10px;
  opacity: 1.0;
}
.combo.sym_sub_text.tap {
  translate: -1px 1px;
}
.combo.sym_sub_text.shifted {
  translate: 7px 5px;
  font-size: 10px;
  opacity: 1.0;
}

/* Toggle */
.toggle.shifted {
  translate: -10px 12px;
}

.toggle.hold {
  translate: 13px -23px;
}

/* Variant for tap-dances */
.tap_dance.tap {
  translate: -7px 0px;
  font-size: 12px;
}
.tap_dance.shifted {
  translate: 7px 17px;
  font-size: 12px;
  opacity: 1.0;
}

/* Variant for symbol next to symbol */
.sym_by_sym.tap {
  translate: -6px 0px;
}
.sym_by_sym.shifted {
  translate: 10px 12px;
  opacity: 1.0;
}

.combo.sym_by_sym.tap {
  translate: -35px 0px;
}
.combo.sym_by_sym.shifted {
  translate: 35px 20px;
  opacity: 1.0;
}

.combo.sym_by_sym.hold {
  visibility: hidden;
}

/* hide hold box for combo sym_by_sym */
.combo.sym_by_sym.hold > path[stroke="none"][fill="none"] {
  visibility: hidden;
}
</style>
<g transform="translate(40, 0)" class="layer-QWERT">
<text x="0" y="28" class="label" id="QWERT">QWERT:</text>
<g transform="translate(0, 56)">
<g transform="translate(28, 42)" class="key keypos-0">
<rect rx="6" ry="6" x="-26" y="-26" width="52" height="52" class="key side"/>
<rect rx="4" ry="4" x="-20" y="-24" width="40" height="40" class="key"/>
<text x="0" y="-4" class="key tap">
<tspan x="0" dy="-1.2em">BT</tspan><tspan x="0" dy="1.2em">CLR</tspan><tspan x="0" dy="1.2em">ALL</tspan>
</text>
</g>
<g transform="translate(84, 42)" class="key keypos-1">
<rect rx="6" ry="6" x="-26" y="-26" width="52" height="52" class="key side"/>
<rect rx="4" ry="4" x="-20" y="-24" width="40" height="40" class="key"/>
<text x="0" y="-4" class="key tap">W</text>
</g>
<g transform="translate(140, 28)" class="key keypos-2">
<rect rx="6" ry="6" x="-26" y="-26" width="52" height="52" class="key side"/>
<rect rx="4" ry="4" x="-20" y="-24" width="40" height="40" class="key"/>
<text x="0" y="-4" class="key tap">E</text>
</g>
<g transform="translate(196, 28)" class="key keypos-3">
<rect rx="6" ry="6" x="-26" y="-26" width="52" height="52" class="key side"/>
<rect rx="4" ry="4" x="-20" y="-24" width="40" height="40" class="key"/>
<text x="0" y="-4" class="key tap">R</text>
</g>
<g transform="translate(252, 42)" class="key keypos-4">
<rect rx="6" ry="6" x="-26" y="-26" width="52" height="52" class="key side"/>
<rect rx="4" ry="4" x="-20" y="-24" width="40" height="40" class="key"/>
<a href="#MOUSE">
<text x="0" y="-4" class="key tap layer-activator">MOUSE</text>
</a></g>
<g transform="translate(308, 42)" class="key keypos-5">
<rect rx="6" ry="6" x="-26" y="-26" width="52" height="52" class="key side"/>
<rect rx="4" ry="4" x="-20" y="-24" width="40" height="40" class="key"/>
<text x="0" y="-4" class="key tap">
<tspan x="0" dy="-0.6em">KP</tspan><tspan x="0" dy="1.2em">SLASH</tspan>
</text>
</g>
<g transform="translate(364, 28)" class="key keypos-6">
<rect rx="6" ry="6" x="-26" y="-26" width="52" height="52" class="key side"/>
<rect rx="4" ry="4" x="-20" y="-24" width="40" height="40" class="key"/>
<text x="0" y="-4" class="key tap">
<tspan x="0" dy="-0.6em">KP</tspan><tspan x="0" dy="1.2em">DIVIDE</tspan>
</text>
</g>
<g transform="translate(420, 28)" class="key keypos-7">
<rect rx="6" ry="6" x="-26" y="-26" width="52" height="52" class="key side"/>
<rect rx="4" ry="4" x="-20" y="-24" width="40" height="40" class="key"/>
<text x="0" y="-4" class="key tap">
<tspan x="0" dy="-0.6em">KP</tspan><tspan x="0" dy="1.2em">MINUS</tspan>
</text>
</g>
<g transform="translate(28, 98)" class="key keypos-8">
<rect rx="6" ry="6" x="-26" y="-26" width="52" height="52" class="key side"/>
<rect rx="4" ry="4" x="-20" y="-24" width="40" height="40" class="key"/>
<text x="0" y="-4" class="key tap">A</text>
</g>
<g transform="translate(84, 98)" class="key keypos-9">
<rect rx="6" ry="6" x="-26" y="-26" width="52" height="52" class="key side"/>
<rect rx="4" ry="4" x="-20" y="-24" width="40" height="40" class="key"/>
<text x="0" y="-4" class="key tap">S</text>
</g>
<g transform="translate(140, 84)" class="key keypos-10">
<rect rx="6" ry="6" x="-26" y="-26" width="52" height="52" class="key side"/>
<rect rx="4" ry="4" x="-20" y="-24" width="40" height="40" class="key"/>
<text x="0" y="-4" class="key tap">D</text>
</g>
<g transform="translate(196, 98)" class="key keypos-11">
<rect rx="6" ry="6" x="-26" y="-26" width="52" height="52" class="key side"/>
<rect rx="4" ry="4" x="-20" y="-24" width="40" height="40" class="key"/>
<text x="0" y="-4" class="key tap">
<tspan x="0" dy="-0.6em">KP</tspan><tspan x="0" dy="1.2em">7</tspan>
</text>
</g>
<g transform="translate(252, 98)" class="key keypos-12">
<rect rx="6" ry="6" x="-26" y="-26" width="52" height="52" class="key side"/>
<rect rx="4" ry="4" x="-20" y="-24" width="40" height="40" class="key"/>
<text x="0" y="-4" class="key tap">
<tspan x="0" dy="-0.6em">KP</tspan><tspan x="0" dy="1.2em">8</tspan>
</text>
</g>
<g transform="translate(308, 84)" class="key keypos-13">
<rect rx="6" ry="6" x="-26" y="-26" width="52" height="52" class="key side"/>
<rect rx="4" ry="4" x="-20" y="-24" width="40" height="40" class="key"/>
<text x="0" y="-4" class="key tap">
<tspan x="0" dy="-0.6em">KP</tspan><tspan x="0" dy="1.2em">9</tspan>
</text>
</g>
<g transform="translate(28, 154)" class="key keypos-14">
<rect rx="6" ry="6" x="-26" y="-26" width="52" height="52" class="key side"/>
<rect rx="4" ry="4" x="-20" y="-24" width="40" height="40" class="key"/>
<text x="0" y="-4" class="key tap">Z</text>
</g>
<g transform="translate(84, 154)" class="key keypos-15">
<rect rx="6" ry="6" x="-26" y="-26" width="52" height="52" class="key side"/>
<rect rx="4" ry="4" x="-20" y="-24" width="40" height="40" class="key"/>
<text x="0" y="-4" class="key tap">X</text>
</g>
<g transform="translate(140, 140)" class="key keypos-16">
<rect rx="6" ry="6" x="-26" y="-26" width="52" height="52" class="key side"/>
<rect rx="4" ry="4" x="-20" y="-24" width="40" height="40" class="key"/>
<text x="0" y="-4" class="key tap">C</text>
</g>
<g transform="translate(196, 140)" class="key keypos-17">
<rect rx="6" ry="6" x="-26" y="-26" width="52" height="52" class="key side"/>
<rect rx="4" ry="4" x="-20" y="-24" width="40" height="40" class="key"/>
<text x="0" y="-4" class="key tap">V</text>
</g>
<g transform="translate(252, 154)" class="key keypos-18">
<rect rx="6" ry="6" x="-26" y="-26" width="52" height="52" class="key side"/>
<rect rx="4" ry="4" x="-20" y="-24" width="40" height="40" class="key"/>
<text x="0" y="-4" class="key tap">
<tspan x="0" dy="-0.6em">KP</tspan><tspan x="0" dy="1.2em">4</tspan>
</text>
</g>
<g transform="translate(308, 154)" class="key keypos-19">
<rect rx="6" ry="6" x="-26" y="-26" width="52" height="52" class="key side"/>
<rect rx="4" ry="4" x="-20" y="-24" width="40" height="40" class="key"/>
<text x="0" y="-4" class="key tap">
<tspan x="0" dy="-0.6em">KP</tspan><tspan x="0" dy="1.2em">5</tspan>
</text>
</g>
<g transform="translate(364, 140)" class="key keypos-20">
<rect rx="6" ry="6" x="-26" y="-26" width="52" height="52" class="key side"/>
<rect rx="4" ry="4" x="-20" y="-24" width="40" height="40" class="key"/>
<text x="0" y="-4" class="key tap">
<tspan x="0" dy="-0.6em">KP</tspan><tspan x="0" dy="1.2em">6</tspan>
</text>
</g>
<g transform="translate(420, 140)" class="key keypos-21">
<rect rx="6" ry="6" x="-26" y="-26" width="52" height="52" class="key side"/>
<rect rx="4" ry="4" x="-20" y="-24" width="40" height="40" class="key"/>
<text x="0" y="-4" class="key tap">
<tspan x="0" dy="-0.6em">KP</tspan><tspan x="0" dy="1.2em">PLUS</tspan>
</text>
</g>
<g transform="translate(28, 210)" class="key keypos-22">
<rect rx="6" ry="6" x="-26" y="-26" width="52" height="52" class="key side"/>
<rect rx="4" ry="4" x="-20" y="-24" width="40" height="40" class="key"/>
<text x="0" y="-4" class="key tap">
<tspan x="0" dy="-0.6em">RGB</tspan><tspan x="0" dy="1.2em">EFF</tspan>
</text>
</g>
<g transform="translate(84, 210)" class="key keypos-23">
<rect rx="6" ry="6" x="-26" y="-26" width="52" height="52" class="key side"/>
<rect rx="4" ry="4" x="-20" y="-24" width="40" height="40" class="key"/>
<text x="0" y="-4" class="key tap">
<tspan x="0" dy="-0.6em">RGB</tspan><tspan x="0" dy="1.2em">EFR</tspan>
</text>
</g>
<g transform="translate(140, 196)" class="key keypos-24">
<rect rx="6" ry="6" x="-26" y="-26" width="52" height="52" class="key side"/>
<rect rx="4" ry="4" x="-20" y="-24" width="40" height="40" class="key"/>
<text x="0" y="-4" class="key tap">U</text>
</g>
<g transform="translate(252, 210)" class="key keypos-25">
<rect rx="6" ry="6" x="-26" y="-26" width="52" height="52" class="key side"/>
<rect rx="4" ry="4" x="-20" y="-24" width="40" height="40" class="key"/>
<text x="0" y="-4" class="key tap">
<tspan x="0" dy="-0.6em">KP</tspan><tspan x="0" dy="1.2em">1</tspan>
</text>
</g>
<g transform="translate(308, 210)" class="key keypos-26">
<rect rx="6" ry="6" x="-26" y="-26" width="52" height="52" class="key side"/>
<rect rx="4" ry="4" x="-20" y="-24" width="40" height="40" class="key"/>
<text x="0" y="-4" class="key tap">
<tspan x="0" dy="-0.6em">KP</tspan><tspan x="0" dy="1.2em">2</tspan>
</text>
</g>
<g transform="translate(364, 196)" class="key keypos-27">
<rect rx="6" ry="6" x="-26" y="-26" width="52" height="52" class="key side"/>
<rect rx="4" ry="4" x="-20" y="-24" width="40" height="40" class="key"/>
<text x="0" y="-4" class="key tap">
<tspan x="0" dy="-0.6em">KP</tspan><tspan x="0" dy="1.2em">3</tspan>
</text>
</g>
<g transform="translate(140, 252)" class="key keypos-28">
<rect rx="6" ry="6" x="-26" y="-26" width="52" height="52" class="key side"/>
<rect rx="4" ry="4" x="-20" y="-24" width="40" height="40" class="key"/>
<text x="0" y="-4" class="key tap">
<tspan x="0" dy="-0.6em">RGB</tspan><tspan x="0" dy="1.2em">TOG</tspan>
</text>
</g>
<g transform="translate(196, 252)" class="key keypos-29">
<rect rx="6" ry="6" x="-26" y="-26" width="52" height="52" class="key side"/>
<rect rx="4" ry="4" x="-20" y="-24" width="40" height="40" class="key"/>
<text x="0" y="-4" class="key tap">
<tspan x="0" dy="-0.6em">RGB</tspan><tspan x="0" dy="1.2em">BRD</tspan>
</text>
</g>
<g transform="translate(280, 259)" class="key keypos-30">
<rect rx="6" ry="6" x="-26" y="-26" width="52" height="52" class="key side"/>
<rect rx="4" ry="4" x="-20" y="-24" width="40" height="40" class="key"/>
<text x="0" y="-4" class="key tap">
<tspan x="0" dy="-0.6em">RGB</tspan><tspan x="0" dy="1.2em">BRI</tspan>
</text>
</g>
<g transform="translate(308, 252)" class="key keypos-31">
<rect rx="6" ry="6" x="-26" y="-26" width="52" height="52" class="key side"/>
<rect rx="4" ry="4" x="-20" y="-24" width="40" height="40" class="key"/>
<text x="0" y="-4" class="key tap">
<tspan x="0" dy="-0.6em">KP</tspan><tspan x="0" dy="1.2em">0</tspan>
</text>
</g>
<g transform="translate(364, 252)" class="key keypos-32">
<rect rx="6" ry="6" x="-26" y="-26" width="52" height="52" class="key side"/>
<rect rx="4" ry="4" x="-20" y="-24" width="40" height="40" class="key"/>
<text x="0" y="-4" class="key tap">
<tspan x="0" dy="-0.6em">KP</tspan><tspan x="0" dy="1.2em">DOT</tspan>
</text>
</g>
<g transform="translate(448, 259)" class="key enter keypos-33">
<rect rx="6" ry="6" x="-26" y="-26" width="52" height="52" class="key enter side"/>
<rect rx="4" ry="4" x="-20" y="-24" width="40" height="40" class="key enter"/>
<use href="#mdi:keyboard-return" xlink:href="#mdi:keyboard-return" x="-9" y="-13" height="18" width="18.0" class="key enter tap glyph mdi:keyboard-return"/>
</g>
</g>
</g>
<g transform="translate(40, 343)" class="layer-MOUSE">
<text x="0" y="28" class="label" id="MOUSE">MOUSE:</text>
<g transform="translate(0, 56)">
<g transform="translate(28, 42)" class="key trans keypos-0">
<rect rx="6" ry="6" x="-26" y="-26" width="52" height="52" class="key trans side"/>
<rect rx="4" ry="4" x="-20" y="-24" width="40" height="40" class="key trans"/>
<use href="#mdi:transfer" xlink:href="#mdi:transfer" x="-9" y="-13" height="18" width="18.0" class="key trans tap glyph mdi:transfer"/>
</g>
<g transform="translate(84, 42)" class="key trans keypos-1">
<rect rx="6" ry="6" x="-26" y="-26" width="52" height="52" class="key trans side"/>
<rect rx="4" ry="4" x="-20" y="-24" width="40" height="40" class="key trans"/>
<use href="#mdi:transfer" xlink:href="#mdi:transfer" x="-9" y="-13" height="18" width="18.0" class="key trans tap glyph mdi:transfer"/>
</g>
<g transform="translate(140, 28)" class="key trans keypos-2">
<rect rx="6" ry="6" x="-26" y="-26" width="52" height="52" class="key trans side"/>
<rect rx="4" ry="4" x="-20" y="-24" width="40" height="40" class="key trans"/>
<use href="#mdi:transfer" xlink:href="#mdi:transfer" x="-9" y="-13" height="18" width="18.0" class="key trans tap glyph mdi:transfer"/>
</g>
<g transform="translate(196, 28)" class="key trans keypos-3">
<rect rx="6" ry="6" x="-26" y="-26" width="52" height="52" class="key trans side"/>
<rect rx="4" ry="4" x="-20" y="-24" width="40" height="40" class="key trans"/>
<use href="#mdi:transfer" xlink:href="#mdi:transfer" x="-9" y="-13" height="18" width="18.0" class="key trans tap glyph mdi:transfer"/>
</g>
<g transform="translate(252, 42)" class="key held keypos-4">
<rect rx="6" ry="6" x="-26" y="-26" width="52" height="52" class="key held side"/>
<rect rx="4" ry="4" x="-20" y="-24" width="40" height="40" class="key held"/>
</g>
<g transform="translate(308, 42)" class="key trans keypos-5">
<rect rx="6" ry="6" x="-26" y="-26" width="52" height="52" class="key trans side"/>
<rect rx="4" ry="4" x="-20" y="-24" width="40" height="40" class="key trans"/>
<use href="#mdi:transfer" xlink:href="#mdi:transfer" x="-9" y="-13" height="18" width="18.0" class="key trans tap glyph mdi:transfer"/>
</g>
<g transform="translate(364, 28)" class="key trans keypos-6">
<rect rx="6" ry="6" x="-26" y="-26" width="52" height="52" class="key trans side"/>
<rect rx="4" ry="4" x="-20" y="-24" width="40" height="40" class="key trans"/>
<use href="#mdi:transfer" xlink:href="#mdi:transfer" x="-9" y="-13" height="18" width="18.0" class="key trans tap glyph mdi:transfer"/>
</g>
<g transform="translate(420, 28)" class="key trans keypos-7">
<rect rx="6" ry="6" x="-26" y="-26" width="52" height="52" class="key trans side"/>
<rect rx="4" ry="4" x="-20" y="-24" width="40" height="40" class="key trans"/>
<use href="#mdi:transfer" xlink:href="#mdi:transfer" x="-9" y="-13" height="18" width="18.0" class="key trans tap glyph mdi:transfer"/>
</g>
<g transform="translate(28, 98)" class="key trans keypos-8">
<rect rx="6" ry="6" x="-26" y="-26" width="52" height="52" class="key trans side"/>
<rect rx="4" ry="4" x="-20" y="-24" width="40" height="40" class="key trans"/>
<use href="#mdi:transfer" xlink:href="#mdi:transfer" x="-9" y="-13" height="18" width="18.0" class="key trans tap glyph mdi:transfer"/>
</g>
<g transform="translate(84, 98)" class="key trans keypos-9">
<rect rx="6" ry="6" x="-26" y="-26" width="52" height="52" class="key trans side"/>
<rect rx="4" ry="4" x="-20" y="-24" width="40" height="40" class="key trans"/>
<use href="#mdi:transfer" xlink:href="#mdi:transfer" x="-9" y="-13" height="18" width="18.0" class="key trans tap glyph mdi:transfer"/>
</g>
<g transform="translate(140, 84)" class="key trans keypos-10">
<rect rx="6" ry="6" x="-26" y="-26" width="52" height="52" class="key trans side"/>
<rect rx="4" ry="4" x="-20" y="-24" width="40" height="40" class="key trans"/>
<use href="#mdi:transfer" xlink:href="#mdi:transfer" x="-9" y="-13" height="18" width="18.0" class="key trans tap glyph mdi:transfer"/>
</g>
<g transform="translate(196, 98)" class="key trans keypos-11">
<rect rx="6" ry="6" x="-26" y="-26" width="52" height="52" class="key trans side"/>
<rect rx="4" ry="4" x="-20" y="-24" width="40" height="40" class="key trans"/>
<use href="#mdi:transfer" xlink:href="#mdi:transfer" x="-9" y="-13" height="18" width="18.0" class="key trans tap glyph mdi:transfer"/>
</g>
<g transform="translate(252, 98)" class="key keypos-12">
<rect rx="6" ry="6" x="-26" y="-26" width="52" height="52" class="key side"/>
<rect rx="4" ry="4" x="-20" y="-24" width="40" height="40" class="key"/>
<use href="#mdi:arrow-up-bold" xlink:href="#mdi:arrow-up-bold" x="-9" y="-13" height="18" width="18.0" class="key tap glyph mdi:arrow-up-bold"/>
</g>
<g transform="translate(308, 84)" class="key trans keypos-13">
<rect rx="6" ry="6" x="-26" y="-26" width="52" height="52" class="key trans side"/>
<rect rx="4" ry="4" x="-20" y="-24" width="40" height="40" class="key trans"/>
<use href="#mdi:transfer" xlink:href="#mdi:transfer" x="-9" y="-13" height="18" width="18.0" class="key trans tap glyph mdi:transfer"/>
</g>
<g transform="translate(28, 154)" class="key trans keypos-14">
<rect rx="6" ry="6" x="-26" y="-26" width="52" height="52" class="key trans side"/>
<rect rx="4" ry="4" x="-20" y="-24" width="40" height="40" class="key trans"/>
<use href="#mdi:transfer" xlink:href="#mdi:transfer" x="-9" y="-13" height="18" width="18.0" class="key trans tap glyph mdi:transfer"/>
</g>
<g transform="translate(84, 154)" class="key trans keypos-15">
<rect rx="6" ry="6" x="-26" y="-26" width="52" height="52" class="key trans side"/>
<rect rx="4" ry="4" x="-20" y="-24" width="40" height="40" class="key trans"/>
<use href="#mdi:transfer" xlink:href="#mdi:transfer" x="-9" y="-13" height="18" width="18.0" class="key trans tap glyph mdi:transfer"/>
</g>
<g transform="translate(140, 140)" class="key trans keypos-16">
<rect rx="6" ry="6" x="-26" y="-26" width="52" height="52" class="key trans side"/>
<rect rx="4" ry="4" x="-20" y="-24" width="40" height="40" class="key trans"/>
<use href="#mdi:transfer" xlink:href="#mdi:transfer" x="-9" y="-13" height="18" width="18.0" class="key trans tap glyph mdi:transfer"/>
</g>
<g transform="translate(196, 140)" class="key trans keypos-17">
<rect rx="6" ry="6" x="-26" y="-26" width="52" height="52" class="key trans side"/>
<rect rx="4" ry="4" x="-20" y="-24" width="40" height="40" class="key trans"/>
<use href="#mdi:transfer" xlink:href="#mdi:transfer" x="-9" y="-13" height="18" width="18.0" class="key trans tap glyph mdi:transfer"/>
</g>
<g transform="translate(252, 154)" class="key keypos-18">
<rect rx="6" ry="6" x="-26" y="-26" width="52" height="52" class="key side"/>
<rect rx="4" ry="4" x="-20" y="-24" width="40" height="40" class="key"/>
<use href="#mdi:arrow-left-bold" xlink:href="#mdi:arrow-left-bold" x="-9" y="-13" height="18" width="18.0" class="key tap glyph mdi:arrow-left-bold"/>
</g>
<g transform="translate(308, 154)" class="key trans keypos-19">
<rect rx="6" ry="6" x="-26" y="-26" width="52" height="52" class="key trans side"/>
<rect rx="4" ry="4" x="-20" y="-24" width="40" height="40" class="key trans"/>
<use href="#mdi:transfer" xlink:href="#mdi:transfer" x="-9" y="-13" height="18" width="18.0" class="key trans tap glyph mdi:transfer"/>
</g>
<g transform="translate(364, 140)" class="key keypos-20">
<rect rx="6" ry="6" x="-26" y="-26" width="52" height="52" class="key side"/>
<rect rx="4" ry="4" x="-20" y="-24" width="40" height="40" class="key"/>
<use href="#mdi:arrow-right-bold" xlink:href="#mdi:arrow-right-bold" x="-9" y="-13" height="18" width="18.0" class="key tap glyph mdi:arrow-right-bold"/>
</g>
<g transform="translate(420, 140)" class="key trans keypos-21">
<rect rx="6" ry="6" x="-26" y="-26" width="52" height="52" class="key trans side"/>
<rect rx="4" ry="4" x="-20" y="-24" width="40" height="40" class="key trans"/>
<use href="#mdi:transfer" xlink:href="#mdi:transfer" x="-9" y="-13" height="18" width="18.0" class="key trans tap glyph mdi:transfer"/>
</g>
<g transform="translate(28, 210)" class="key trans keypos-22">
<rect rx="6" ry="6" x="-26" y="-26" width="52" height="52" class="key trans side"/>
<rect rx="4" ry="4" x="-20" y="-24" width="40" height="40" class="key trans"/>
<use href="#mdi:transfer" xlink:href="#mdi:transfer" x="-9" y="-13" height="18" width="18.0" class="key trans tap glyph mdi:transfer"/>
</g>
<g transform="translate(84, 210)" class="key trans keypos-23">
<rect rx="6" ry="6" x="-26" y="-26" width="52" height="52" class="key trans side"/>
<rect rx="4" ry="4" x="-20" y="-24" width="40" height="40" class="key trans"/>
<use href="#mdi:transfer" xlink:href="#mdi:transfer" x="-9" y="-13" height="18" width="18.0" class="key trans tap glyph mdi:transfer"/>
</g>
<g transform="translate(140, 196)" class="key trans keypos-24">
<rect rx="6" ry="6" x="-26" y="-26" width="52" height="52" class="key trans side"/>
<rect rx="4" ry="4" x="-20" y="-24" width="40" height="40" class="key trans"/>
<use href="#mdi:transfer" xlink:href="#mdi:transfer" x="-9" y="-13" height="18" width="18.0" class="key trans tap glyph mdi:transfer"/>
</g>
<g transform="translate(252, 210)" class="key trans keypos-25">
<rect rx="6" ry="6" x="-26" y="-26" width="52" height="52" class="key trans side"/>
<rect rx="4" ry="4" x="-20" y="-24" width="40" height="40" class="key trans"/>
<use href="#mdi:transfer" xlink:href="#mdi:transfer" x="-9" y="-13" height="18" width="18.0" class="key trans tap glyph mdi:transfer"/>
</g>
<g transform="translate(308, 210)" class="key keypos-26">
<rect rx="6" ry="6" x="-26" y="-26" width="52" height="52" class="key side"/>
<rect rx="4" ry="4" x="-20" y="-24" width="40" height="40" class="key"/>
<use href="#mdi:arrow-down-bold" xlink:href="#mdi:arrow-down-bold" x="-9" y="-13" height="18" width="18.0" class="key tap glyph mdi:arrow-down-bold"/>
</g>
<g transform="translate(364, 196)" class="key trans keypos-27">
<rect rx="6" ry="6" x="-26" y="-26" width="52" height="52" class="key trans side"/>
<rect rx="4" ry="4" x="-20" y="-24" width="40" height="40" class="key trans"/>
<use href="#mdi:transfer" xlink:href="#mdi:transfer" x="-9" y="-13" height="18" width="18.0" class="key trans tap glyph mdi:transfer"/>
</g>
<g transform="translate(140, 252)" class="key trans keypos-28">
<rect rx="6" ry="6" x="-26" y="-26" width="52" height="52" class="key trans side"/>
<rect rx="4" ry="4" x="-20" y="-24" width="40" height="40" class="key trans"/>
<use href="#mdi:transfer" xlink:href="#mdi:transfer" x="-9" y="-13" height="18" width="18.0" class="key trans tap glyph mdi:transfer"/>
</g>
<g transform="translate(196, 252)" class="key trans keypos-29">
<rect rx="6" ry="6" x="-26" y="-26" width="52" height="52" class="key trans side"/>
<rect rx="4" ry="4" x="-20" y="-24" width="40" height="40" class="key trans"/>
<use href="#mdi:transfer" xlink:href="#mdi:transfer" x="-9" y="-13" height="18" width="18.0" class="key trans tap glyph mdi:transfer"/>
</g>
<g transform="translate(280, 259)" class="key trans keypos-30">
<rect rx="6" ry="6" x="-26" y="-26" width="52" height="52" class="key trans side"/>
<rect rx="4" ry="4" x="-20" y="-24" width="40" height="40" class="key trans"/>
<use href="#mdi:transfer" xlink:href="#mdi:transfer" x="-9" y="-13" height="18" width="18.0" class="key trans tap glyph mdi:transfer"/>
</g>
<g transform="translate(308, 252)" class="key trans keypos-31">
<rect rx="6" ry="6" x="-26" y="-26" width="52" height="52" class="key trans side"/>
<rect rx="4" ry="4" x="-20" y="-24" width="40" height="40" class="key trans"/>
<use href="#mdi:transfer" xlink:href="#mdi:transfer" x="-9" y="-13" height="18" width="18.0" class="key trans tap glyph mdi:transfer"/>
</g>
<g transform="translate(364, 252)" class="key trans keypos-32">
<rect rx="6" ry="6" x="-26" y="-26" width="52" height="52" class="key trans side"/>
<rect rx="4" ry="4" x="-20" y="-24" width="40" height="40" class="key trans"/>
<use href="#mdi:transfer" xlink:href="#mdi:transfer" x="-9" y="-13" height="18" width="18.0" class="key trans tap glyph mdi:transfer"/>
</g>
<g transform="translate(448, 259)" class="key trans keypos-33">
<rect rx="6" ry="6" x="-26" y="-26" width="52" height="52" class="key trans side"/>
<rect rx="4" ry="4" x="-20" y="-24" width="40" height="40" class="key trans"/>
<use href="#mdi:transfer" xlink:href="#mdi:transfer" x="-9" y="-13" height="18" width="18.0" class="key trans tap glyph mdi:transfer"/>
</g>
</g>
</g>
</svg>
